<?xml version="1.0" encoding="UTF-8" standalone="no"?>
<svg
   xmlns:dc="http://purl.org/dc/elements/1.1/"
   xmlns:cc="http://creativecommons.org/ns#"
   xmlns:rdf="http://www.w3.org/1999/02/22-rdf-syntax-ns#"
   xmlns:svg="http://www.w3.org/2000/svg"
   xmlns="http://www.w3.org/2000/svg"
   xmlns:sodipodi="http://sodipodi.sourceforge.net/DTD/sodipodi-0.dtd"
   xmlns:inkscape="http://www.inkscape.org/namespaces/inkscape"
   width="24"
   height="24"
   viewBox="0 0 23.999999 23.999999"
   version="1.1"
   id="svg1103"
   inkscape:version="1.0.2-2 (e86c870879, 2021-01-15)"
   sodipodi:docname="money.svg">
  <defs
     id="defs1097" />
  <sodipodi:namedview
     id="base"
     pagecolor="#818181"
     bordercolor="#666666"
     borderopacity="1.0"
     inkscape:pageopacity="0"
     inkscape:pageshadow="2"
     inkscape:zoom="22.4"
     inkscape:cx="15.351867"
     inkscape:cy="14.899671"
     inkscape:document-units="px"
     inkscape:current-layer="layer1"
     inkscape:document-rotation="0"
     showgrid="true"
     inkscape:window-width="1920"
     inkscape:window-height="1013"
     inkscape:window-x="-9"
     inkscape:window-y="-9"
     inkscape:window-maximized="1"
     units="px"
     borderlayer="true"
     inkscape:showpageshadow="true"
     showguides="true"
     inkscape:guide-bbox="true"
     inkscape:lockguides="true"
     inkscape:snap-bbox="true"
     inkscape:snap-nodes="true"
     inkscape:bbox-nodes="true"
     inkscape:snap-center="true"
     inkscape:snap-global="true"
     inkscape:object-nodes="false">
    <inkscape:grid
       type="xygrid"
       id="grid1666"
       empspacing="4" />
    <sodipodi:guide
       position="0,31.999999"
       orientation="0,-1"
       id="guide1668"
       inkscape:locked="true" />
    <sodipodi:guide
       position="0,0"
       orientation="0,-1"
       id="guide1670"
       inkscape:locked="true" />
    <sodipodi:guide
       position="0,31.999999"
       orientation="1,0"
       id="guide1672"
       inkscape:locked="true" />
    <sodipodi:guide
       position="23.999999,23.999999"
       orientation="1,0"
       id="guide1674"
       inkscape:locked="true" />
  </sodipodi:namedview>
  <metadata
     id="metadata1100">
    <rdf:RDF>
      <cc:Work
         rdf:about="">
        <dc:format>image/svg+xml</dc:format>
        <dc:type
           rdf:resource="http://purl.org/dc/dcmitype/StillImage" />
        <dc:title></dc:title>
      </cc:Work>
    </rdf:RDF>
  </metadata>
  <g
     inkscape:label="Layer 1"
     inkscape:groupmode="layer"
     id="layer1">
    <g
       id="g907"
       transform="translate(-40,-6)">
      <rect
         style="fill:#4d4d4d;fill-opacity:1;stroke:#ffffff;stroke-width:1;stroke-linecap:round;stroke-linejoin:round;stroke-miterlimit:4;stroke-dasharray:none;stroke-opacity:1;stop-color:#000000"
         id="rect840"
         width="13"
         height="16"
         x="5.5"
         y="4.5" />
      <ellipse
         style="fill:#4d4d4d;fill-opacity:1;stroke:#ffffff;stroke-width:1;stroke-linecap:round;stroke-linejoin:round;stroke-miterlimit:4;stroke-dasharray:none;stroke-opacity:1;stop-color:#000000"
         id="path838"
         cx="12"
         cy="4"
         rx="6.4999995"
         ry="2.5" />
      <path
         id="path838-6"
         style="fill:#4d4d4d;fill-opacity:1;stroke:#ffffff;stroke-width:1;stroke-linecap:round;stroke-linejoin:round;stroke-miterlimit:4;stroke-dasharray:none;stroke-opacity:1;stop-color:#000000"
         d="m 18.5,8 c 0,1.380712 -2.910149,2.5 -6.5,2.5 C 8.4101489,10.5 5.5,9.380712 5.5,8"
         sodipodi:nodetypes="csc" />
      <path
         id="path838-6-6"
         style="fill:#4d4d4d;fill-opacity:1;stroke:#ffffff;stroke-width:1;stroke-linecap:round;stroke-linejoin:round;stroke-miterlimit:4;stroke-dasharray:none;stroke-opacity:1;stop-color:#000000"
         d="m 18.5,12 c 0,1.380712 -2.910149,2.5 -6.5,2.5 -3.5898511,0 -6.5,-1.119288 -6.5,-2.5"
         sodipodi:nodetypes="csc" />
      <path
         id="path838-6-8"
         style="fill:#4d4d4d;fill-opacity:1;stroke:#ffffff;stroke-width:1;stroke-linecap:round;stroke-linejoin:round;stroke-miterlimit:4;stroke-dasharray:none;stroke-opacity:1;stop-color:#000000"
         d="m 18.5,16 c 0,1.380712 -2.910149,2.5 -6.5,2.5 -3.5898511,0 -6.5,-1.119288 -6.5,-2.5"
         sodipodi:nodetypes="csc" />
      <path
         id="path838-6-9"
         style="fill:#4d4d4d;fill-opacity:1;stroke:#ffffff;stroke-width:1;stroke-linecap:round;stroke-linejoin:round;stroke-miterlimit:4;stroke-dasharray:none;stroke-opacity:1;stop-color:#000000"
         d="m 18.5,20 c 0,1.380712 -2.910149,2.5 -6.5,2.5 -3.5898511,0 -6.5,-1.119288 -6.5,-2.5"
         sodipodi:nodetypes="csc" />
    </g>
    <circle
       style="fill:#ffffff;fill-opacity:1;stroke:none;stroke-width:0;stroke-linecap:round;stroke-linejoin:round;stroke-miterlimit:4;stroke-dasharray:none;stroke-opacity:1;stop-color:#000000"
       id="path909"
       cx="12"
       cy="12"
       r="10" />
    <g
       aria-label="$"
       id="text913"
       style="font-size:16px;line-height:1.25;font-family:Arial;-inkscape-font-specification:Arial;letter-spacing:0px;word-spacing:0px">
      <path
         id="path915"
         style="font-style:normal;font-variant:normal;font-weight:normal;font-stretch:normal;font-family:Univers-Black;-inkscape-font-specification:Univers-Black;fill:#4d4d4d;fill-opacity:1"
         d="m 7.0239999,13.896001 c 1.088,0 2.1760001,0 3.2640001,0 -0.03518,0.718535 0.2295,1.588457 1.008,1.792 0,-0.890667 0,-1.781333 0,-2.672 -0.503859,-0.01865 -0.975274,-0.225567 -1.4680001,-0.344 -0.937417,-0.28942 -2.023568,-0.726769 -2.333375,-1.758875 C 7.1071926,9.8105707 7.1839062,8.4636015 8.0225624,7.5829381 8.8350877,6.6553709 10.101328,6.2894181 11.296,6.2320006 c 0,-0.512 0,-1.024 0,-1.536 0.464,0 0.928,0 1.392,0 0,0.5013333 0,1.0026667 0,1.504 0.475731,0.083214 0.994124,0.087337 1.463,0.26675 1.010395,0.3259365 1.997453,1.0253899 2.279,2.10125 0.01438,0.3340949 0.457277,1.2520773 -0.08545,1.1975859 -1.01085,-0.00986 -2.0217,-0.019724 -3.03255,-0.029586 0.07762,-0.3973633 -0.383447,-1.2601663 -0.624,-1.1259448 0,0.711315 0,1.4226302 0,2.1339452 0.663677,0.259901 1.387051,0.366196 2.0475,0.656187 0.810693,0.318019 1.755374,0.715291 2.0445,1.620063 0.32882,1.065749 0.293757,2.342435 -0.38,3.27175 -0.779844,0.932926 -2.006732,1.409509 -3.2,1.476 -0.505678,-0.122535 -0.566947,0.160468 -0.512,0.562276 0,0.324575 0,0.649149 0,0.973724 -0.464,0 -0.928,0 -1.392,0 0,-0.501333 0,-1.002667 0,-1.504 -1.3690235,0.02751 -2.888597,-0.4129 -3.6600001,-1.628 -0.4419543,-0.669314 -0.59037,-1.48679 -0.612,-2.276 z m 5.6640001,-0.512 c 0,0.757333 0,1.514667 0,2.272 0.588849,-0.186317 1.246137,-0.793268 1.068,-1.464 -0.144061,-0.480986 -0.702209,-0.636507 -1.068,-0.808 z M 11.296,8.4720006 c -0.543039,0.1865832 -1.04931,0.7775663 -0.717,1.359 0.06816,0.2853674 0.836049,0.8616734 0.717,0.2781864 0,-0.5457286 0,-1.0914575 0,-1.6371864 z" />
    </g>
  </g>
</svg>
