<?xml version="1.0" encoding="UTF-8" standalone="no"?>
<svg
   xmlns:dc="http://purl.org/dc/elements/1.1/"
   xmlns:cc="http://creativecommons.org/ns#"
   xmlns:rdf="http://www.w3.org/1999/02/22-rdf-syntax-ns#"
   xmlns:svg="http://www.w3.org/2000/svg"
   xmlns="http://www.w3.org/2000/svg"
   xmlns:xlink="http://www.w3.org/1999/xlink"
   xmlns:sodipodi="http://sodipodi.sourceforge.net/DTD/sodipodi-0.dtd"
   xmlns:inkscape="http://www.inkscape.org/namespaces/inkscape"
   width="64"
   height="64"
   viewBox="0 0 64 64"
   version="1.1"
   id="svg8"
   inkscape:version="1.0.2-2 (e86c870879, 2021-01-15)"
   sodipodi:docname="icon.svg"
   inkscape:export-filename="C:\Data\Hack\Godot\godot-projects\planetary-defense\assets\icons\icon.png"
   inkscape:export-xdpi="96"
   inkscape:export-ydpi="96">
  <defs
     id="defs2">
    <linearGradient
       inkscape:collect="always"
       id="linearGradient1012">
      <stop
         style="stop-color:#cad547;stop-opacity:1"
         offset="0"
         id="stop1006" />
      <stop
         style="stop-color:#8ed526;stop-opacity:0.05466238"
         offset="1"
         id="stop1010" />
    </linearGradient>
    <linearGradient
       inkscape:collect="always"
       id="linearGradient888">
      <stop
         style="stop-color:#71e682;stop-opacity:1"
         offset="0"
         id="stop882" />
      <stop
         style="stop-color:#26d542;stop-opacity:1"
         offset="0.32202384"
         id="stop884" />
      <stop
         style="stop-color:#000000;stop-opacity:1"
         offset="1"
         id="stop886" />
    </linearGradient>
    <linearGradient
       inkscape:collect="always"
       id="linearGradient841">
      <stop
         style="stop-color:#719fe6;stop-opacity:1"
         offset="0"
         id="stop837" />
      <stop
         style="stop-color:#266bd5;stop-opacity:1"
         offset="0.32202384"
         id="stop845" />
      <stop
         style="stop-color:#000000;stop-opacity:1"
         offset="1"
         id="stop839" />
    </linearGradient>
    <radialGradient
       inkscape:collect="always"
       xlink:href="#linearGradient841"
       id="radialGradient843"
       cx="24"
       cy="24"
       fx="24"
       fy="24"
       r="18"
       gradientUnits="userSpaceOnUse"
       gradientTransform="matrix(2.6666665,0,0,2.3703704,-39.999994,-32.888888)" />
    <radialGradient
       inkscape:collect="always"
       xlink:href="#linearGradient888"
       id="radialGradient843-7"
       cx="24"
       cy="24"
       fx="24"
       fy="24"
       r="18"
       gradientUnits="userSpaceOnUse"
       gradientTransform="matrix(2.6666665,0,0,2.3703704,-39.999994,-32.888888)" />
    <radialGradient
       inkscape:collect="always"
       xlink:href="#linearGradient888"
       id="radialGradient843-7-6"
       cx="24"
       cy="24"
       fx="24"
       fy="24"
       r="18"
       gradientUnits="userSpaceOnUse"
       gradientTransform="matrix(2.6666665,0,0,2.3703704,-39.999994,-32.888888)" />
    <radialGradient
       inkscape:collect="always"
       xlink:href="#linearGradient1012"
       id="radialGradient843-7-64"
       cx="24.136362"
       cy="31.512369"
       fx="24.136362"
       fy="31.512369"
       r="18"
       gradientUnits="userSpaceOnUse"
       gradientTransform="matrix(1.6111112,0.55555564,-0.26923337,0.7807766,-7.4021832,3.9867861)" />
    <radialGradient
       inkscape:collect="always"
       xlink:href="#linearGradient1012"
       id="radialGradient843-7-64-9"
       cx="27.139549"
       cy="1.1984017"
       fx="27.139549"
       fy="1.1984017"
       r="18"
       gradientUnits="userSpaceOnUse"
       gradientTransform="matrix(2.0000001,1.8922865e-8,-4.5076341e-8,0.82589267,-18.279101,19.010248)" />
    <radialGradient
       inkscape:collect="always"
       xlink:href="#linearGradient1012"
       id="radialGradient843-7-6-1"
       cx="31.5"
       cy="32.4375"
       fx="31.5"
       fy="32.4375"
       r="18"
       gradientUnits="userSpaceOnUse"
       gradientTransform="matrix(1.9999999,1.7580014e-7,3.5810014e-8,0.66666671,-18.999997,22.374994)" />
  </defs>
  <sodipodi:namedview
     id="base"
     pagecolor="#acacac"
     bordercolor="#666666"
     borderopacity="1.0"
     inkscape:pageopacity="0"
     inkscape:pageshadow="2"
     inkscape:zoom="7.9195959"
     inkscape:cx="47.557355"
     inkscape:cy="32.269318"
     inkscape:document-units="px"
     inkscape:current-layer="layer2"
     inkscape:document-rotation="0"
     showgrid="true"
     units="px"
     inkscape:window-width="1920"
     inkscape:window-height="1013"
     inkscape:window-x="-9"
     inkscape:window-y="-9"
     inkscape:window-maximized="1"
     inkscape:snap-bbox="true"
     inkscape:bbox-nodes="true">
    <inkscape:grid
       type="xygrid"
       id="grid833"
       empspacing="4" />
  </sodipodi:namedview>
  <metadata
     id="metadata5">
    <rdf:RDF>
      <cc:Work
         rdf:about="">
        <dc:format>image/svg+xml</dc:format>
        <dc:type
           rdf:resource="http://purl.org/dc/dcmitype/StillImage" />
        <dc:title />
      </cc:Work>
    </rdf:RDF>
  </metadata>
  <g
     inkscape:label="BG"
     inkscape:groupmode="layer"
     id="layer1"
     sodipodi:insensitive="true">
    <rect
       style="fill:#000000;fill-opacity:1;stroke-width:0;stroke-linecap:round;stroke-linejoin:round;stop-color:#000000"
       id="rect833"
       width="64"
       height="64"
       x="0"
       y="0"
       ry="12" />
  </g>
  <g
     inkscape:groupmode="layer"
     id="layer2"
     inkscape:label="Water"
     style="display:inline">
    <circle
       style="fill:url(#radialGradient843);fill-opacity:1;stroke-width:0;stroke-linecap:round;stroke-linejoin:round;stop-color:#000000"
       id="path835"
       cx="32"
       cy="32"
       r="24" />
  </g>
  <g
     inkscape:groupmode="layer"
     id="layer3"
     inkscape:label="Land"
     style="display:inline"
     sodipodi:insensitive="true">
    <path
       id="path835-7"
       style="fill:url(#radialGradient843-7);fill-opacity:1;stroke-width:0;stroke-linecap:round;stroke-linejoin:round;stop-color:#000000"
       d="m 40,16 c -1.593581,5.339922 1,9 8,8 -1,4 5,6 4,10 -3.042628,2.628105 -20.70478,-8.302808 -17,7 -10.239585,2.314429 2.901091,8.380723 -14,5 -0.503122,-1.936049 -10.000603,-12.90645 -10,-15 0.0013,-4.568355 3.783269,-4.365622 6,-8 2,0 8,2 5,-6 7,2 15,-6 18,-1 z"
       sodipodi:nodetypes="ccccccccc" />
    <path
       id="path835-7-2"
       style="display:inline;fill:url(#radialGradient843-7-6);fill-opacity:1;stroke-width:0;stroke-linecap:round;stroke-linejoin:round;stop-color:#000000"
       d="m 42,39 c 7,-2 8,0 4,9 -10.239585,2.314429 -11,6 -15,3 5,-7 8,-4 11,-12 z"
       sodipodi:nodetypes="cccc" />
  </g>
  <g
     inkscape:groupmode="layer"
     id="layer4"
     inkscape:label="Vegetation"
     style="display:inline"
     sodipodi:insensitive="true">
    <path
       id="path835-7-6"
       style="display:inline;fill:url(#radialGradient843-7-64);fill-opacity:1;stroke-width:0;stroke-linecap:round;stroke-linejoin:round;stop-color:#000000"
       d="m 40,16 c -1.593581,5.339922 1,9 8,8 -1,4 5,6 4,10 -3.042628,2.628105 -20.70478,-8.302808 -17,7 -10.239585,2.314429 2.901091,8.380723 -14,5 -0.503122,-1.936049 -10.000603,-12.90645 -10,-15 0.0013,-4.568355 3.783269,-4.365622 6,-8 2,0 8,2 5,-6 7,2 15,-6 18,-1 z"
       sodipodi:nodetypes="ccccccccc" />
    <path
       id="path835-7-6-7"
       style="display:inline;fill:url(#radialGradient843-7-64-9);fill-opacity:1;stroke-width:0;stroke-linecap:round;stroke-linejoin:round;stop-color:#000000"
       d="m 40,16 c -1.593581,5.339922 1,9 8,8 -1,4 5,6 4,10 -3.042628,2.628105 -20.70478,-8.302808 -17,7 -10.239585,2.314429 2.901091,8.380723 -14,5 -0.503122,-1.936049 -10.000603,-12.90645 -10,-15 0.0013,-4.568355 3.783269,-4.365622 6,-8 2,0 8,2 5,-6 7,2 15,-6 18,-1 z"
       sodipodi:nodetypes="ccccccccc" />
    <path
       id="path835-7-2-2"
       style="display:inline;fill:url(#radialGradient843-7-6-1);fill-opacity:1;stroke-width:0;stroke-linecap:round;stroke-linejoin:round;stop-color:#000000"
       d="m 42,39 c 7,-2 8,0 4,9 -10.239585,2.314429 -11,6 -15,3 5,-7 8,-4 11,-12 z"
       sodipodi:nodetypes="cccc" />
  </g>
</svg>
